<svg width="137" height="70" viewBox="0 0 137 70" fill="none" xmlns="http://www.w3.org/2000/svg">
<path d="M21.88 1.25V25.7H16.42V15.77H5.62V25.7H0.16V1.25H5.62V10.94H16.42V1.25H21.88ZM34.3049 26.12C32.5449 26.12 30.9649 25.72 29.5649 24.92C28.1849 24.14 27.1049 23.05 26.3249 21.65C25.5449 20.25 25.1549 18.67 25.1549 16.91C25.1549 15.15 25.5449 13.57 26.3249 12.17C27.1049 10.77 28.1849 9.68 29.5649 8.9C30.9649 8.1 32.5449 7.7 34.3049 7.7C36.0649 7.7 37.6349 8.1 39.0149 8.9C40.4149 9.68 41.5049 10.77 42.2849 12.17C43.0649 13.57 43.4549 15.15 43.4549 16.91C43.4549 17.49 43.4149 18.06 43.3349 18.62H30.4649C30.6649 19.64 31.1049 20.43 31.7849 20.99C32.4649 21.55 33.3049 21.83 34.3049 21.83C35.0649 21.83 35.7349 21.71 36.3149 21.47C36.9149 21.21 37.3249 20.87 37.5449 20.45H42.9149C42.6149 21.57 42.0549 22.55 41.2349 23.39C40.4149 24.25 39.4049 24.92 38.2049 25.4C37.0049 25.88 35.7049 26.12 34.3049 26.12ZM38.2349 15.17C38.0149 14.11 37.5649 13.31 36.8849 12.77C36.2049 12.21 35.3449 11.93 34.3049 11.93C33.2649 11.93 32.4149 12.21 31.7549 12.77C31.0949 13.31 30.6549 14.11 30.4349 15.17H38.2349ZM51.932 25.7H46.592V0.499998H51.932V25.7ZM61.2777 25.7H55.9377V0.499998H61.2777V25.7ZM73.7134 7.7C75.4934 7.7 77.0934 8.1 78.5134 8.9C79.9334 9.68 81.0434 10.77 81.8434 12.17C82.6434 13.57 83.0434 15.15 83.0434 16.91C83.0434 18.67 82.6434 20.25 81.8434 21.65C81.0434 23.05 79.9334 24.14 78.5134 24.92C77.0934 25.72 75.4934 26.12 73.7134 26.12C71.9334 26.12 70.3334 25.72 68.9134 24.92C67.4934 24.14 66.3834 23.05 65.5834 21.65C64.7834 20.25 64.3834 18.67 64.3834 16.91C64.3834 15.15 64.7834 13.57 65.5834 12.17C66.3834 10.77 67.4934 9.68 68.9134 8.9C70.3334 8.1 71.9334 7.7 73.7134 7.7ZM73.7134 12.26C72.4734 12.26 71.4634 12.7 70.6834 13.58C69.9234 14.44 69.5434 15.55 69.5434 16.91C69.5434 18.27 69.9234 19.39 70.6834 20.27C71.4634 21.13 72.4734 21.56 73.7134 21.56C74.9534 21.56 75.9534 21.13 76.7134 20.27C77.4934 19.39 77.8834 18.27 77.8834 16.91C77.8834 15.55 77.4934 14.44 76.7134 13.58C75.9534 12.7 74.9534 12.26 73.7134 12.26ZM90.7621 17.6H87.0421L85.6621 1.25H92.1421L90.7621 17.6ZM88.9021 19.79C89.8221 19.79 90.5821 20.09 91.1821 20.69C91.7821 21.29 92.0821 22.05 92.0821 22.97C92.0821 23.89 91.7821 24.64 91.1821 25.22C90.5821 25.82 89.8221 26.12 88.9021 26.12C87.9821 26.12 87.2221 25.82 86.6221 25.22C86.0221 24.64 85.7221 23.89 85.7221 22.97C85.7221 22.05 86.0221 21.29 86.6221 20.69C87.2221 20.09 87.9821 19.79 88.9021 19.79ZM0.16 37.25H9.64C12.3 37.25 14.62 37.77 16.6 38.81C18.58 39.83 20.1 41.27 21.16 43.13C22.22 44.97 22.75 47.09 22.75 49.49C22.75 51.89 22.22 54.02 21.16 55.88C20.1 57.72 18.58 59.15 16.6 60.17C14.62 61.19 12.3 61.7 9.64 61.7H0.16V37.25ZM9.73 56.87C12.09 56.87 13.94 56.23 15.28 54.95C16.62 53.65 17.29 51.83 17.29 49.49C17.29 47.15 16.62 45.33 15.28 44.03C13.94 42.73 12.09 42.08 9.73 42.08H5.62V56.87H9.73ZM33.5291 62.12C31.8691 62.12 30.3891 61.72 29.0891 60.92C27.7891 60.14 26.7791 59.05 26.0591 57.65C25.3391 56.25 24.9791 54.67 24.9791 52.91C24.9791 51.15 25.3391 49.57 26.0591 48.17C26.7791 46.77 27.7891 45.68 29.0891 44.9C30.3891 44.1 31.8691 43.7 33.5291 43.7C35.7891 43.7 37.4691 44.44 38.5691 45.92V44.12H43.9091V61.7H38.5691V59.9C37.4691 61.38 35.7891 62.12 33.5291 62.12ZM34.3691 57.56C35.6691 57.56 36.7091 57.13 37.4891 56.27C38.2691 55.39 38.6591 54.27 38.6591 52.91C38.6591 51.55 38.2691 50.44 37.4891 49.58C36.7091 48.7 35.6691 48.26 34.3691 48.26C33.1091 48.26 32.0991 48.7 31.3391 49.58C30.5791 50.44 30.1991 51.55 30.1991 52.91C30.1991 54.27 30.5791 55.39 31.3391 56.27C32.0991 57.13 33.1091 57.56 34.3691 57.56ZM65.2797 44.12L55.1697 69.02H49.9197L53.0997 61.22L46.1697 44.12H52.0797L55.8897 54.98L59.7297 44.12H65.2797ZM88.2175 62.3C85.7175 62.3 83.4575 61.74 81.4375 60.62C79.4375 59.52 77.8675 58 76.7275 56.06C75.5875 54.1 75.0175 51.9 75.0175 49.46C75.0175 47.02 75.5875 44.83 76.7275 42.89C77.8675 40.93 79.4375 39.4 81.4375 38.3C83.4575 37.18 85.7175 36.62 88.2175 36.62C90.7175 36.62 92.9675 37.18 94.9675 38.3C96.9875 39.4 98.5675 40.93 99.7075 42.89C100.848 44.83 101.418 47.02 101.418 49.46C101.418 51.9 100.848 54.1 99.7075 56.06C98.5675 58 96.9875 59.52 94.9675 60.62C92.9675 61.74 90.7175 62.3 88.2175 62.3ZM88.2175 57.38C89.6775 57.38 90.9975 57.04 92.1775 56.36C93.3575 55.68 94.2775 54.74 94.9375 53.54C95.6175 52.32 95.9575 50.96 95.9575 49.46C95.9575 47.94 95.6175 46.58 94.9375 45.38C94.2775 44.18 93.3575 43.24 92.1775 42.56C90.9975 41.88 89.6775 41.54 88.2175 41.54C86.7575 41.54 85.4375 41.88 84.2575 42.56C83.0775 43.24 82.1475 44.18 81.4675 45.38C80.8075 46.58 80.4775 47.94 80.4775 49.46C80.4775 50.96 80.8075 52.32 81.4675 53.54C82.1475 54.74 83.0775 55.68 84.2575 56.36C85.4375 57.04 86.7575 57.38 88.2175 57.38ZM114.742 48.71H111.382V61.7H106.042V48.71H103.102V44.12H106.042V42.38C106.042 40.6 106.572 39.16 107.632 38.06C108.692 36.94 110.152 36.38 112.012 36.38C112.972 36.38 113.782 36.44 114.442 36.56V41.03C114.182 40.99 113.722 40.97 113.062 40.97C112.542 40.97 112.132 41.13 111.832 41.45C111.532 41.75 111.382 42.16 111.382 42.68V44.12H114.742V48.71ZM127.691 48.71H124.331V61.7H118.991V48.71H116.051V44.12H118.991V42.38C118.991 40.6 119.521 39.16 120.581 38.06C121.641 36.94 123.101 36.38 124.961 36.38C125.921 36.38 126.731 36.44 127.391 36.56V41.03C127.131 40.99 126.671 40.97 126.011 40.97C125.491 40.97 125.081 41.13 124.781 41.45C124.481 41.75 124.331 42.16 124.331 42.68V44.12H127.691V48.71ZM134.707 53.6H130.987L129.607 37.25H136.087L134.707 53.6ZM132.847 55.79C133.767 55.79 134.527 56.09 135.127 56.69C135.727 57.29 136.027 58.05 136.027 58.97C136.027 59.89 135.727 60.64 135.127 61.22C134.527 61.82 133.767 62.12 132.847 62.12C131.927 62.12 131.167 61.82 130.567 61.22C129.967 60.64 129.667 59.89 129.667 58.97C129.667 58.05 129.967 57.29 130.567 56.69C131.167 56.09 131.927 55.79 132.847 55.79Z" fill="#305476"/>
</svg>
